<svg enable-background="new 0 0 1400 980" height="980" viewBox="0 0 1400 980" width="1400" xmlns="http://www.w3.org/2000/svg"><g fill="#373737"><path d="m283.6 145-2.5 2.8c12.1 10.7 18.3 23.2 21.6 32.1 1.1-.4 2.3-.8 3.5-1.1-3.3-9.2-9.8-22.5-22.6-33.8z"/><path d="m347 147.8-2.5-2.8c-12.8 11.3-19.3 24.5-22.7 33.8 1.2.3 2.4.7 3.6 1.1 3.3-8.9 9.5-21.5 21.6-32.1z"/><path d="m240.2 239.3c-1.1-6.2-5.2-24-16.4-36.7l-5.6 4.9c12 13.6 14.9 34.8 14.9 35l.3 2.2 2 .8c6.9 2.7 14.1 5.7 20.1 8.2 1.1-2.5 2.2-4.7 3.2-6.7-4.6-2.1-10.6-4.6-18.5-7.7z"/><path d="m230.6 263.7-32.4 17.7-15.8-9.5-3.8 6.4 19.4 11.6 32.1-17.5 14.3 10c.8-2.5 1.6-5 2.4-7.3z"/><path d="m219.8 320.9-3.1 1.1 8.6 39.3-19.8 33.3 6.4 3.8 21.3-35.8-7.8-35.8c2.8-1 7.2-2.5 11.9-4.2.1-2.7.2-5.4.5-8-9 3-17.3 6-18 6.3z"/><path d="m393 245.4 2-.8.3-2.2c0-.2 2.9-21.3 14.9-35l-5.6-4.9c-11.2 12.7-15.3 30.5-16.4 36.7-8 3.2-14.1 5.7-18.8 7.7 1 2 2.1 4.3 3.2 6.7 6.2-2.5 13.5-5.5 20.4-8.2z"/><path d="m398.3 272.4 32.1 17.5 19.4-11.6-3.8-6.4-15.8 9.5-32.4-17.7-16.4 11.5c.8 2.4 1.6 4.8 2.4 7.4z"/><path d="m403.1 326.8-7.8 35.8 21.3 35.8 6.4-3.8-19.8-33.3 8.6-39.3-3.1-1.1c-.7-.3-9.2-3.3-18.2-6.5.3 2.7.4 5.4.5 8 4.9 1.8 9.3 3.4 12.1 4.4z"/><path d="m359 242.8c-8.5 9.4-25.2 15.6-44.9 15.6-19.6 0-36.4-6.2-44.9-15.6-7.6 14.1-36.6 72.3-19 112 11.1 25.2 29.7 41 43.3 49.8 6.2 4 13.3 6.1 20.6 6.1 7.4 0 14.5-2.1 20.6-6.1 13.6-8.8 32.2-24.6 43.3-49.8 17.6-39.6-11.4-97.9-19-112z"/><path d="m314.1 251.1c23.6 0 43.5-10.4 43.5-22.7 0-8.3-9.1-15.7-22.3-19.7-4.6 5.3-12.4 8.7-21.3 8.7-8.8 0-16.6-3.5-21.3-8.7-13.2 4-22.3 11.4-22.3 19.7.2 12.3 20.1 22.7 43.7 22.7z"/><path d="m314.1 210c9.9 0 18.2-5.7 18.2-12.3 0-6.7-8.3-12.3-18.2-12.3s-18.2 5.7-18.2 12.3c0 6.7 8.4 12.3 18.2 12.3z"/><path d="m745.7 182c-1.5-1.2-3-2.5-4.6-3.8s-3.2-2.6-4.7-4-3-2.8-4-4.3l-.2-.3-.1-.1-.4-.7-.9-1.4-.5-1.2-.3-.6c-.1-.2-.1-.4-.2-.6-.7-1.6-.8-3.3-.8-4.8 0-1.6.4-3.1 1-4.7.5-1.5 1.2-3 1.9-4.4s1.4-2.8 2-3.9c.6-1.2 1.1-2.3 1.6-3.2.4-.9.7-1.7 1-2.2.2-.5.3-.8.3-.8 0-.1.1-.2.1-.3.8-2.4-.4-5-2.8-5.8s-5 .4-5.8 2.8l-.1.2s-.1.2-.2.7c-.2.4-.4 1.1-.7 1.9s-.7 1.9-1.2 3.1c-.5 1.3-1.1 2.7-1.7 4.2-.6 1.6-1.3 3.4-1.8 5.5s-1 4.4-.8 7c.1 2.5.7 5.1 1.8 7.4.1.3.2.6.4.9l.5.9c.3.6.7 1.2 1 1.7l1 1.3.5.7.1.2.1.2.1.1.3.3c1.6 1.9 3.4 3.4 5.2 4.8s3.6 2.6 5.3 3.8c1.5 1 3 2 4.4 3 1.5-1 3.1-1.9 4.7-2.6-.7-.3-1.1-.6-1.5-1z"/><path d="m784 182.7c1.7-1.2 3.5-2.4 5.3-3.8s3.6-2.9 5.2-4.8l.3-.3.1-.1.1-.2.1-.2.5-.7 1-1.3c.3-.5.7-1.1 1-1.7l.5-.9c.1-.3.3-.6.4-.9 1.1-2.3 1.7-4.9 1.8-7.4s-.3-4.9-.8-7-1.2-3.9-1.8-5.5c-.6-1.5-1.2-3-1.7-4.2s-.9-2.3-1.2-3.1c-.3-.9-.5-1.5-.7-1.9s-.2-.7-.2-.7l-.1-.2c0-.1-.1-.2-.1-.3-1-2.3-3.7-3.4-6-2.4s-3.4 3.7-2.4 6c0 0 .1.3.3.8s.5 1.3 1 2.2c.4.9 1 2 1.6 3.2s1.3 2.5 2 3.9c.6 1.4 1.4 2.9 1.9 4.4s.9 3.1 1 4.7c0 1.6-.1 3.2-.8 4.8-.1.2-.1.4-.2.6l-.3.6-.5 1.2-.9 1.4-.4.7-.1.1-.2.3c-1.1 1.5-2.5 2.9-4 4.3s-3.1 2.7-4.7 4-3.2 2.5-4.6 3.8c-.5.4-.9.8-1.4 1.2 1.6.8 3.2 1.6 4.6 2.6 1.2-1.1 2.8-2.1 4.4-3.2z"/><path d="m679.9 236.1-22.4-58.4c-1.1-2.9-4.3-4.3-7.2-3.2s-4.3 4.3-3.2 7.2l23.3 60.8c.6 1.5 1.8 2.7 3.4 3.3l22.6 7.8c2.1-3.3 4.4-6.5 6.8-9.4z"/><path d="m654.2 280.1c-2.1-.3-4.2.7-5.3 2.5l-26.6 40.7-23.4 6.4c-3 .8-4.7 3.9-3.9 6.8.7 2.5 2.9 4.1 5.4 4.1.5 0 1-.1 1.5-.2l25.5-6.9c1.3-.4 2.5-1.2 3.2-2.3l25.9-39.6 24.5 3c.7-3.7 1.5-7.3 2.5-10.9z"/><path d="m664.4 335.8c-2.4 0-4.5 1.5-5.3 3.8l-20.1 60.2-24.7 10.6c-2.8 1.2-4.1 4.5-2.9 7.3.9 2.1 3 3.4 5.1 3.4.7 0 1.5-.1 2.2-.5l27-11.6c1.5-.6 2.6-1.8 3.1-3.4l19.6-58.7h14.2c-.9-3.6-1.7-7.4-2.2-11.1z"/><path d="m854.8 245.8c1.6-.5 2.8-1.7 3.4-3.3l23.3-60.8c1.1-2.9-.3-6.1-3.2-7.2s-6.1.3-7.2 3.2l-22.4 58.4-29.1 10c2.3 3 4.5 6.2 6.5 9.5z"/><path d="m929.8 329.7-23.4-6.4-26.6-40.7c-1.2-1.8-3.2-2.7-5.3-2.5l-36.2 4.4c1 3.6 1.7 7.2 2.4 10.9l31.7-3.9 25.9 39.6c.7 1.1 1.9 2 3.2 2.3l25.5 6.9c.5.1 1 .2 1.5.2 2.5 0 4.7-1.6 5.4-4.1.6-2.9-1.1-5.9-4.1-6.7z"/><path d="m860.2 346.9 19.6 58.7c.5 1.5 1.6 2.7 3.1 3.4l27 11.6c.7.3 1.5.5 2.2.5 2.2 0 4.2-1.3 5.1-3.4 1.2-2.8-.1-6.1-2.9-7.3l-24.7-10.6-20.1-60.2c-.8-2.3-2.9-3.8-5.3-3.8h-23.3c-.6 3.8-1.3 7.5-2.2 11.1z"/><path d="m785.9 219.8c.5-2 .8-4.1.8-6.2 0-14.3-11.7-26-26-26s-26 11.7-26 26c0 2.2.3 4.2.8 6.2 8-3.3 16.5-5 25.2-5s17.2 1.7 25.2 5z"/><path d="m698.8 264.2h123.6c-13.7-26.1-37-42.1-61.8-42.1-24.8.1-48 16-61.8 42.1z"/><path d="m826 271.7h-130.7c-5.9 13.7-9 29.2-9 45 0 52.1 33.3 94.5 74.3 94.5s74.3-42.4 74.3-94.5c.1-15.8-3-31.3-8.9-45z"/><path d="m1107.4 214.8c-1.6-1.5-3.3-3.2-5-5.1-.9-1-1.8-2-2.7-3s-1.9-2-2.9-3.1c-3.9-4.2-8-8.6-11.9-13.2-1.9-2.3-3.8-4.6-5.4-7-1.7-2.4-3.3-4.8-4.6-7.2-.3-.6-.6-1.1-.9-1.7s-.5-1.2-.8-1.8c-.2-.6-.5-1.2-.7-1.8s-.4-1.2-.6-1.8c-.7-2.3-1.2-4.6-1.4-6.7s-.3-4-.2-5.7.4-3.1.6-4.3c.3-1.1.6-2 .8-2.6s.3-.9.3-.9l.1-.2c.5-1.5-.2-3.2-1.7-3.7s-3.2.2-3.7 1.7c0 0-.1.4-.4 1.2-.3.7-.6 1.9-.9 3.3s-.6 3.2-.7 5.2 0 4.3.3 6.7.9 5 1.8 7.6c.2.7.5 1.3.7 2s.5 1.3.8 2 .6 1.3.9 2 .7 1.4 1.1 2c1.5 2.6 3.2 5.1 5 7.5 1.8 2.5 3.8 4.9 5.8 7.2 4.1 4.7 8.4 9 12.3 13.1 1 1 2 2 2.9 3s1.9 2 2.8 2.9c1.8 1.9 3.6 3.7 5.4 5.3.2.2.4.3.6.5.8-1.1 1.8-2 2.8-2.9 0-.1-.2-.3-.5-.5z"/><path d="m1143.1 214.8c1.6-1.5 3.3-3.2 5-5.1.9-1 1.8-2 2.7-3s1.9-2 2.9-3.1c3.9-4.2 8-8.6 11.9-13.2 1.9-2.3 3.8-4.6 5.4-7 1.7-2.4 3.3-4.8 4.6-7.2.3-.6.6-1.1.9-1.7s.5-1.2.8-1.8c.2-.6.5-1.2.7-1.8s.4-1.2.6-1.8c.7-2.3 1.2-4.6 1.4-6.7s.3-4 .2-5.7-.4-3.1-.6-4.3c-.3-1.1-.6-2-.8-2.6s-.3-.9-.3-.9l-.1-.2c-.5-1.5.2-3.2 1.7-3.7s3.2.2 3.7 1.7c0 0 .1.4.4 1.2.3.7.6 1.9.9 3.3s.6 3.2.7 5.2 0 4.3-.3 6.7-.9 5-1.8 7.6c-.2.7-.5 1.3-.7 2s-.5 1.3-.8 2-.6 1.3-.9 2-.7 1.4-1.1 2c-1.5 2.6-3.2 5.1-5 7.5-1.8 2.5-3.8 4.9-5.8 7.2-4.1 4.7-8.4 9-12.3 13.1-1 1-2 2-2.9 3s-1.9 2-2.8 2.9c-1.8 1.9-3.6 3.7-5.4 5.3-.2.2-.4.3-.6.5-.8-1.1-1.8-2-2.8-2.9 0-.1.2-.3.5-.5z"/><path d="m1142.1 233.7-2.3-12.5c-1.3-7-7.4-12.1-14.5-12.1s-13.2 5.1-14.5 12.1l-2.3 12.5z"/><path d="m1189 271.1c4.6-2.2 9.2-4.4 13.8-6.5l.2-.1c.6-.3 1.1-.9 1.1-1.6.1-.6.3-1.2.4-1.9.2-.6.3-1.3.5-1.9.3-1.3.7-2.5 1.1-3.8.2-.6.4-1.2.7-1.9.2-.6.5-1.2.7-1.8s.5-1.2.7-1.8c.3-.6.5-1.2.8-1.8l.8-1.7.9-1.7c.3-.6.6-1.1 1-1.7.3-.5.6-1.1 1-1.6l1.1-1.6c.4-.5.8-1 1.1-1.5.4-.5.8-1 1.2-1.4l1.2-1.4.2-.2c.1-.1.2-.2.2-.3 1.2-1.6.9-4-.8-5.2-1.6-1.2-4-.9-5.2.8l-1.3 1.8c-.5.6-.9 1.2-1.2 1.8-.4.6-.8 1.2-1.2 1.9l-1 1.9c-.4.6-.6 1.3-1 1.9-.3.6-.6 1.3-.9 2l-.8 2-.7 2c-.3.7-.5 1.3-.7 2s-.4 1.3-.6 2-.4 1.3-.6 2-.3 1.4-.5 2c-.3 1.4-.6 2.7-.8 4.1-.1.7-.2 1.4-.3 2.1 0 .3-.1.6-.1.9-3.9 1.3-7.8 2.7-11.7 4.1-.2 2.5-.8 4.9-1.8 7.1.9-.2 1.7-.6 2.5-1z"/><path d="m1250.2 287.2c-1-1.7-3.3-2.3-5.1-1.3l-12.3 7.4-24.6-11.6c-.6-.3-1.4-.3-2.1.1l-21.2 13.1c.5.5 1.1 1 1.6 1.5 1.1 1 2.2 2.1 3.3 3.2l17.5-13.8 23.8 14.9c1 .6 2.4.7 3.5 0l.2-.1 14-8.4c1.9-1 2.4-3.3 1.4-5z"/><path d="m1203.7 327 9.1 2.6-8.1 28c-.2.8-.1 1.7.3 2.5l.1.2 16.4 27.6c1 1.8 3.3 2.3 5.1 1.3s2.3-3.3 1.3-5.1l-15.7-26.5 4.3-28.8c.1-.8-.3-1.6-1.1-1.9l-11.5-4.9v.2c-.1 1.6-.2 3.2-.2 4.8z"/><path d="m1051.3 261.1c0-.3-.1-.6-.1-.9-.1-.7-.2-1.4-.3-2.1-.2-1.4-.5-2.7-.8-4.1-.2-.7-.3-1.4-.5-2-.2-.7-.4-1.4-.6-2-.2-.7-.4-1.3-.6-2s-.4-1.3-.7-2l-.7-2-.8-2c-.3-.7-.6-1.3-.9-2-.3-.6-.6-1.3-1-1.9l-1-1.9c-.4-.6-.8-1.2-1.2-1.9-.4-.6-.8-1.2-1.2-1.8l-1.3-1.8c-1.2-1.6-3.5-2-5.2-.8-1.6 1.2-2 3.5-.8 5.2.1.1.1.2.2.3l.2.2 1.2 1.4c.4.4.8.9 1.2 1.4s.8 1 1.1 1.5l1.1 1.6c.4.5.7 1.1 1 1.6s.7 1.1 1 1.7l.9 1.7.8 1.7c.3.6.5 1.2.8 1.8s.5 1.2.7 1.8.5 1.2.7 1.8.4 1.2.7 1.9c.4 1.2.8 2.5 1.1 3.8.2.6.3 1.3.5 1.9s.3 1.3.4 1.9c.1.7.5 1.3 1.1 1.6l.2.1c4.6 2.1 9.3 4.3 13.8 6.5.5.2 1 .5 1.4.7-.9-2.2-1.4-4.5-1.6-6.9-3.5-1.5-7.2-2.8-10.8-4z"/><path d="m1066.1 294.7-20.8-12.8c-.7-.4-1.4-.4-2.1-.1l-24.6 11.6-12.3-7.4c-1.8-1-4-.5-5.1 1.3-1 1.7-.5 4 1.3 5.1l14 8.4.2.1c1.1.7 2.5.6 3.5 0l23.8-14.9 17.1 13.4c1-.9 2-1.9 3-2.8.7-.7 1.3-1.3 2-1.9z"/><path d="m1036.2 326.9c-.8.3-1.2 1.1-1.1 1.9l4.3 28.8-15.7 26.5c-1 1.8-.5 4 1.3 5.1 1.8 1 4 .5 5.1-1.3l16.4-27.6.1-.2c.5-.8.5-1.7.3-2.5l-8.1-28 8.3-2.4c-.1-1.6-.1-3.2-.1-4.8z"/><path d="m1061.7 307.1c-4.9 5-8.9 10.3-8.9 15.1 0 2.9.1 5.8.4 8.6h144.3c.2-2.8.4-5.7.4-8.6 0-4.9-4-10.1-8.9-15.1z"/><path d="m1196.8 336.7h-142.8c1.7 9.6 5 18.7 10.1 27.1h123.9c4.4-8.3 7.4-17.3 8.8-27.1z"/><path d="m1068 369.7c5.6 7.8 12.7 15 21.4 21.6 16.1 12.3 32.4 18.3 36.1 19.6 3.7-1 20-5.9 36.1-17.6 9.5-6.9 17.1-14.8 22.9-23.7h-116.5z"/><path d="m1067.8 301.2h115.1c-.1-.1-.3-.2-.4-.4-5.2-4.9-10.2-9.6-12.8-14.4h-4.5-79.7-4.5c-2.5 4.7-7.5 9.4-12.8 14.4-.1.1-.3.2-.4.4z"/><path d="m1085.5 280.5h79.7c9.6 0 17.4-7.8 17.4-17.4v-6.1c0-9.6-7.8-17.4-17.4-17.4h-79.7c-9.6 0-17.4 7.8-17.4 17.4v6.1c0 9.6 7.8 17.4 17.4 17.4z"/><path d="m741.8 572.9c-6.5-10-10.1-19.3-6.8-32 1.6-6 4.1-11.9 6.6-17.6 3.6-8.4 7.3-17 8.4-26.5.2-2 .1-4.4 0-7.1-.2-4.3-.4-10.2 1.3-12.2l-4.5-3.5c-2.9 3.7-2.7 10.2-2.5 16 .1 2.4.2 4.7 0 6.2-1 8.7-4.4 16.6-8 24.9-2.5 5.9-5.2 12-6.8 18.4-4.1 15.6 1.2 26.8 7.5 36.5 2.5 3.9 4.9 6.3 7.4 8.2 1-1.6 2.1-3.2 3.3-4.6-1.9-1.5-3.8-3.5-5.9-6.7z"/><path d="m782.8 582.2c1.7-1.6 3.3-3.6 5-6.2 6.3-9.7 11.6-20.9 7.5-36.5-1.7-6.4-4.3-12.5-6.8-18.4-3.6-8.3-7-16.2-8-24.9-.2-1.6-.1-3.8 0-6.2.2-5.7.4-12.3-2.5-16l-4.5 3.5c1.6 2.1 1.4 7.9 1.3 12.2-.1 2.6-.2 5.1 0 7.1 1.1 9.5 4.8 18.2 8.4 26.5 2.5 5.7 5 11.6 6.6 17.6 3.3 12.7-.3 22-6.8 32-1.4 2.1-2.6 3.7-3.9 4.9 1.4 1.3 2.6 2.8 3.7 4.4z"/><path d="m816.4 629.6c1.4-.6 2.8-1.3 4.3-1.9 2.9-1.3 5.9-2.5 8.9-3.8l9-3.7 9-3.6 4.5-1.8.8-5c0-.1 0-.3 0-.5s0-.4 0-.6c0-.4 0-.8 0-1.2 0-.8 0-1.6.1-2.4.1-1.6.2-3.2.4-4.9.1-.8.2-1.6.3-2.4s.2-1.6.4-2.4c.1-.8.3-1.6.4-2.4.2-.8.3-1.6.5-2.4l.6-2.4.7-2.4c.2-.8.5-1.6.8-2.4s.5-1.6.8-2.3l.9-2.3c.3-.8.7-1.5 1.1-2.3s.7-1.5 1.2-2.2l1.3-2.2-3.1-2.7-2 1.8c-.7.6-1.3 1.3-2 1.9-.6.7-1.3 1.3-1.9 2l-1.8 2.1c-.6.7-1.1 1.5-1.7 2.2s-1.1 1.5-1.6 2.3l-1.5 2.3-1.4 2.4c-.5.8-.9 1.6-1.4 2.4s-.9 1.6-1.3 2.5c-.4.8-.9 1.7-1.2 2.5-.4.8-.8 1.7-1.2 2.6-.8 1.7-1.5 3.5-2.1 5.2 0 .1-.1.2-.1.3l-5.6 2.3-9.1 3.8c-1.6.7-3.2 1.3-4.8 2-.3 7.2-1.8 14.9-3.3 20.1.1-.1.6-.3 1.1-.5z"/><path d="m921 669.6-16.4 7.2-29.4-20.1-4.2-2.9-4.8 3.3-19.4 13.6c3.5 4.5 6.4 9.4 8.7 14.7l16.6-11.6 29.6 12.5 3 1.3 1.7-1.4 16.6-13.1z"/><path d="m871 768.1-3.5 31.6-.2 2 .7 1.1 22.4 34.5 4.7-2.8-18.6-34.4 12-36.1 2.4-7.1-7.9-2.8-23.7-8.4c-1.2 5.8-2.8 11.2-4.6 16.5z"/><path d="m704.3 608.1-9.1-3.8-5.6-2.3c0-.1-.1-.2-.1-.3-.7-1.8-1.4-3.5-2.1-5.2-.4-.9-.8-1.7-1.2-2.6s-.8-1.7-1.2-2.5-.9-1.7-1.3-2.5c-.5-.8-.9-1.6-1.4-2.4l-1.4-2.4-1.5-2.3c-.5-.8-1.1-1.5-1.6-2.3-.6-.7-1.1-1.5-1.7-2.2l-1.8-2.1c-.6-.7-1.3-1.4-1.9-2-.6-.7-1.3-1.3-2-1.9l-2-1.8-3.1 2.7 1.3 2.2c.4.7.8 1.5 1.2 2.2.4.8.7 1.5 1.1 2.3l.9 2.3c.3.8.6 1.6.8 2.3.3.8.5 1.6.8 2.4l.7 2.4.6 2.4c.2.8.3 1.6.5 2.4s.3 1.6.4 2.4.3 1.6.4 2.4.2 1.6.3 2.4c.2 1.6.3 3.2.4 4.9 0 .8.1 1.6.1 2.4v1.2.6.5l.8 5 4.5 1.8 9 3.6 9 3.7c3 1.2 6 2.5 8.9 3.8 1.5.6 2.9 1.3 4.3 1.9.7.3 1.4.6 1.9.9l.4.2c.1.1.3.1.3.2h.1c-.2-.1-.3-.2-.5-.3-.3-.2-.6-.5-.8-.8 0-.1 0 0 0 0l.1.1.1.1.9-.8c-1.3-5-2.7-12-3-18.5-2.4-1-4.5-1.8-6.5-2.7z"/><path d="m661 657.3-4.8-3.3-4.2 2.9-29.4 20.1-16.4-7.2-2.2 3.6 16.6 13.1 1.7 1.4 3-1.3 29.6-12.5 17.7 12.3c2.2-5.4 5.1-10.3 8.6-14.8z"/><path d="m644.3 754.2-7.9 2.8 2.4 7.1 12 36.1-18.6 34.4 4.7 2.8 22.4-34.5.7-1.1-.2-2-3.5-31.6 17.6-6.2c-1.8-5.2-3.3-10.7-4.5-16.5z"/><path d="m745.7 600.3c5.8 1.7 12 2.9 18.6 2.9s12.9-1.2 18.6-2.9c-2.9-9.5-8.6-21.3-18.6-21.3s-15.7 11.8-18.6 21.3z"/><path d="m737.8 642.1c.7.2 1.2.3 1.7.5h24.6.1.1 24.6c.5-.2 1-.3 1.7-.5 4.5-1.2 14-3.7 16.8-13.8 4.3-15.6 3.4-27.7 1.4-28.8-.1 0-.2 0-.4 0-2.5.6-5.8 1.8-9.6 3.3-8.9 3.4-21.1 8-34.7 8s-25.8-4.6-34.7-8c-3.8-1.4-7.1-2.7-9.6-3.3-.2 0-.3 0-.3 0-2 1.1-3 13.2 1.4 28.8 2.9 10.1 12.4 12.6 16.9 13.8z"/><path d="m839.8 674.2c-17.8-21.4-46.2-23.9-48-24h-55c-1.9.1-30.4 2.7-48.1 24.1-12.1 14.5-16.7 34.5-13.6 59.4 5.1 41.8 29.4 70 48.9 86.4 18.1 15.1 35.4 23.1 40.2 25.2 4.9-2.1 22.4-10.2 40.4-25.4 28.3-23.8 44.7-52.8 48.8-86.2 3.1-25-1.5-45-13.6-59.5z"/><path d="m1056.2 641.8-16.8-43.9c-.8-2.2-3.3-3.2-5.4-2.4-2.2.8-3.2 3.3-2.4 5.4l17.5 45.8c.4 1.2 1.4 2.1 2.6 2.5l24.2 8.3c1-2.7 2.2-5.2 3.7-7.6z"/><path d="m1066.4 688.1-35.8-4.4c-1.6-.2-3.1.5-4 1.9l-20.1 30.6-17.6 4.8c-2.2.6-3.6 2.9-2.9 5.2.5 1.9 2.2 3.1 4 3.1.4 0 .7 0 1.1-.1l19.2-5.2c1-.3 1.8-.9 2.4-1.7l19.5-29.8 31.4 3.8c.8-1.9 1.7-3.7 2.7-5.4-.1-1-.1-1.9.1-2.8z"/><path d="m1030.3 751.3c-1.8.4-3 2-3.2 3.8l-3.6 47.6-16.1 12.3c-1.8 1.4-2.2 4-.8 5.9.8 1.1 2.1 1.7 3.3 1.7.9 0 1.8-.3 2.5-.9l17.6-13.4c1-.7 1.5-1.8 1.6-3l3.5-46.5 24.8-6.3c-.5-2.8-1-5.6-1.3-8.3z"/><path d="m1113.5 618.1-26.6-9.2 4.3-37.4c.1-1-.6-1.8-1.5-1.9-1-.1-1.8.6-1.9 1.5l-4.5 38.8c-.1.8.4 1.6 1.2 1.9l26 8.9c.8-1 1.9-1.9 3-2.6z"/><path d="m1200.8 649.1c1.2-.4 2.1-1.3 2.6-2.5l17.5-45.8c.8-2.2-.3-4.6-2.4-5.4-2.2-.8-4.6.3-5.4 2.4l-16.8 43.9-23.4 8c1.5 2.3 2.8 4.9 3.7 7.6z"/><path d="m1263.6 721.1-17.6-4.8-20-30.6c-.9-1.3-2.4-2.1-4-1.9l-35.8 4.4c.1.9.2 1.8.2 2.7 1 1.7 1.9 3.5 2.7 5.4l31.4-3.8 19.5 29.8c.6.9 1.4 1.5 2.4 1.7l19.2 5.2c.4.1.7.1 1.1.1 1.8 0 3.5-1.2 4-3.1.4-2.2-.9-4.5-3.1-5.1z"/><path d="m1217.1 758.7 3.5 46.5c.1 1.2.7 2.3 1.6 3l17.6 13.4c.8.6 1.7.9 2.5.9 1.3 0 2.5-.6 3.3-1.7 1.4-1.8 1.1-4.5-.8-5.9l-16.1-12.3-3.6-47.6c-.1-1.8-1.4-3.3-3.2-3.8l-28.5-7.2c-.4 2.8-.8 5.5-1.3 8.3z"/><path d="m1142.1 620.7 26-8.9c.8-.3 1.3-1 1.2-1.9l-4.5-38.8c-.1-1-1-1.6-1.9-1.5-1 .1-1.6 1-1.5 1.9l4.3 37.4-26.6 9.2c1 .7 2 1.6 3 2.6z"/><path d="m1142.6 633.5c-1.3-7.8-8.2-13.8-16.4-13.8s-15.1 6-16.4 13.8z"/><path d="m1126.2 661.9c22.6 0 40.1 6.2 51.7 17.8l-6.2-19.4c-4.1-12.7-15.7-21.2-29.1-21.2h-32.8c-13.3 0-25 8.5-29.1 21.2l-6.2 19.4c11.7-11.7 29.1-17.8 51.7-17.8z"/><path d="m1104.3 764.4c-16 2.4-27.9 7.7-32.4 10.1 3.6 10 8.2 19.3 13.6 27.5 4.3-3.4 14.4-9.5 27.7-11.6 17.7-2.7 34.8 2.5 50.8 15.7 5.7-7.8 10.7-17.1 14.7-27-29.3-17-56.6-17.4-74.4-14.7z"/><path d="m1160.6 810.4c-35.1-28.9-66-8.3-71.8-3.9 10.6 14.3 23.6 23.7 37.4 23.7 12.5 0 24.4-7.7 34.4-19.8z"/><path d="m1188.7 737.7c.3-3.4.4-6.8.4-10.1 0-6.3-.5-11.9-1.6-17-33.2-16.5-64.2-16.9-84.4-14.2-19.6 2.6-32.9 8.2-37.4 10.3-1.6 6-2.5 13-2.5 20.9 0 2.2.1 4.5.2 6.8 5.8-2.8 19.4-8 37.6-10.6 21.1-3 53.2-2.9 87.7 13.9z"/><path d="m1188 743.6c-33.4-16.8-64.6-17.1-84.9-14.5-24.4 3.2-39 11.1-39.1 11.2.2-.1.2-.2.3-.2l-.4-.4c1 9.8 3.1 19.8 6.2 29.5 5.6-2.9 17.1-7.7 32-10.1 18.8-3 47.6-2.9 78.5 14.7 3.6-9.8 6.1-20.1 7.4-30.2z"/><path d="m1126.2 667.5c-22.2 0-47.7 6.3-58.1 32.1 7-2.8 18.6-6.5 33-8.6 20.4-2.9 51.3-2.9 84.7 12.5-9.4-29.1-36.3-36-59.6-36z"/><path d="m300 545c-.9-1.6-1.9-3.3-3.1-5-1.3-1.7-2.8-3.3-4.4-4.9s-3.3-3.2-4.9-5-3.2-3.6-4.7-5.5c-.8-.9-1.6-1.8-2.4-2.7s-1.7-1.7-2.6-2.5c-1.8-1.6-3.6-3.1-5.3-4.6-.9-.7-1.8-1.4-2.7-2s-1.8-1.2-2.7-1.8c-1.8-1.1-3.5-2-5.1-2.9-1.6-.8-3.1-1.5-4.5-2.1s-2.6-1-3.6-1.4c-2-.7-3.2-1-3.2-1l-.2.3s.9.8 2.6 2c.9.6 1.9 1.4 3.1 2.2s2.5 1.8 4 2.8c.7.5 1.5 1 2.3 1.6s1.6 1.1 2.4 1.7 1.7 1.2 2.5 1.8c.9.6 1.8 1.2 2.7 1.8 1.8 1.3 3.7 2.6 5.5 4s3.8 2.7 5.7 4.2c1.9 1.4 3.7 3 5.3 4.7s3 3.6 4.1 5.5c1.2 1.9 2.2 3.8 3.2 5.5 1.1 1.7 2.2 3.3 3.1 4.7 0 0 0 .1.1.1.9-.6 1.9-1.1 2.9-1.6-.1.2-.1.1-.1.1z"/><path d="m335.4 546.7c1-1.5 2.1-3 3.1-4.7 1.1-1.7 2.1-3.6 3.2-5.5 1.2-1.9 2.5-3.8 4.1-5.5s3.4-3.3 5.3-4.7 3.9-2.8 5.7-4.2c1.9-1.4 3.7-2.7 5.5-4 .9-.6 1.8-1.2 2.7-1.8s1.7-1.2 2.5-1.8 1.6-1.1 2.4-1.7 1.5-1.1 2.3-1.6c1.4-1 2.8-2 4-2.8s2.2-1.6 3.1-2.2c1.7-1.2 2.6-2 2.6-2l-.2-.3s-1.2.3-3.2 1c-1 .3-2.2.8-3.6 1.4-1.4.5-2.9 1.3-4.5 2.1s-3.3 1.8-5.1 2.9c-.9.6-1.8 1.1-2.7 1.8-.9.6-1.8 1.3-2.7 2-1.8 1.4-3.6 2.9-5.3 4.6-.9.8-1.7 1.7-2.6 2.5-.8.9-1.6 1.8-2.4 2.7-1.6 1.9-3.1 3.7-4.7 5.5s-3.2 3.4-4.9 5c-1.6 1.6-3.2 3.2-4.4 4.9-1.3 1.7-2.3 3.4-3.1 5 0 .1-.1.1-.1.2 1.1.2 2 .7 3 1.2-.1.1 0 0 0 0z"/><path d="m248.9 619.4c-.9-.6-1.9-1.1-2.8-1.6s-1.9-1.1-2.8-1.6c-1.9-1.1-3.8-2-5.7-3s-3.9-1.9-5.8-2.9c-1.9-.9-3.9-1.8-5.9-2.7s-3.9-1.7-5.9-2.6c-1.2-.5-2.4-1-3.7-1.5-.1-.4-.1-.7-.2-1.1-.2-1.2-.5-2.3-.7-3.5s-.6-2.3-.9-3.4-.7-2.3-1-3.4-.8-2.2-1.1-3.3c-.4-1.1-.8-2.2-1.2-3.3s-.9-2.2-1.4-3.3-.9-2.2-1.5-3.2c-.5-1.1-1.1-2.1-1.6-3.1l-1.8-3.1c-.6-1-1.3-2-1.9-3-.7-1-1.3-2-2-2.9l-2.2-2.8c-.8-.9-1.6-1.7-2.4-2.6l-1.2-1.3c-.4-.4-.9-.8-1.3-1.2-.9-.7-1.8-1.5-2.7-2.2.5 1.1 1.1 2.1 1.6 3.1.3.5.6 1 .8 1.5l.7 1.5 1.5 3 1.4 3.1c.5 1 .8 2.1 1.3 3.1.4 1 .9 2 1.2 3.1l1.1 3.1c.3 1.1.7 2.1 1 3.2.4 1 .6 2.1 1 3.2.3 1.1.7 2.1.9 3.2.3 1.1.6 2.1.9 3.2s.6 2.1.8 3.2c.5 2.1 1 4.3 1.5 6.4.2 1.1.4 2.1.6 3.2l.5 3.1.4 2.6 2.3.9c2 .8 4 1.6 6 2.3 2 .8 4 1.5 6 2.2s4 1.5 6.1 2.2c2 .7 4.1 1.4 6.1 2.1s4.1 1.3 6.1 2l3.1.9 2.2.7c1-1.2 2-2.3 2.9-3.4-.1 0-.2-.1-.3-.1z"/><path d="m221.3 649.7c-1.7-1.3-3.3-2.6-5-3.9s-3.4-2.6-5.1-3.9-3.4-2.6-5.1-3.8l-2.1-1.5-2.4 1.2c-3.7 1.9-7.3 3.8-10.9 5.8-1.8 1-3.6 2-5.4 3s-3.6 2-5.4 3-3.6 2-5.3 3.1c-1.8 1-3.5 2.1-5.3 3.2-3.1 1.9-6.1 3.8-9.2 5.7-3.5-1.8-7.1-3.5-10.6-5.1-2.1-1-4.2-1.9-6.3-2.8-1.1-.5-2.1-.9-3.2-1.3s-2.2-.9-3.2-1.3c.9.8 1.8 1.5 2.7 2.3s1.8 1.5 2.7 2.2c1.8 1.4 3.6 2.9 5.5 4.3 3.7 2.8 7.4 5.5 11.2 8.1l1.3.9 1.8-.8c3.8-1.7 7.5-3.5 11.2-5.3 1.9-.9 3.7-1.8 5.5-2.7s3.7-1.9 5.5-2.8 3.7-1.9 5.5-2.9 3.6-1.9 5.4-2.9c2.9-1.6 5.7-3.2 8.6-4.8 1 .7 2 1.3 3.1 2 1.8 1.2 3.6 2.3 5.4 3.4s3.6 2.2 5.4 3.4c1.4.8 2.7 1.6 4.1 2.5 1.1-1.8 2.2-3.6 3.3-5.3-1.4-1.1-2.6-2.1-3.7-3z"/><path d="m201.6 702.3c-1.5.3-2.9.6-4.4.9-2.9.6-5.9 1.2-8.8 1.8l-8.8 1.9-8.7 2-8.7 2.1-8.7 2.2-4.1 1 1.1 4.2c1.1 4.2 2.2 8.4 3.4 12.6s2.3 8.4 3.6 12.6c1.2 4.2 2.5 8.4 3.7 12.6l1.9 6.3 1.4 4.5c-2.4 3.4-4.9 6.8-7.3 10.3-2.8 4-5.5 8-8.3 12.1-1.3 2-2.7 4.1-4 6.1l-4 6.2c-1.3 2-2.6 4.1-3.9 6.2s-2.6 4.2-3.8 6.3c1.7-1.7 3.4-3.5 5.1-5.3s3.4-3.6 5-5.4l4.9-5.5c1.6-1.8 3.2-3.7 4.8-5.5 3.2-3.7 6.4-7.4 9.5-11.1s6.2-7.5 9.3-11.3l1.2-1.4-.5-2-1.6-6.3-1.6-6.3c-1.1-4.2-2.2-8.4-3.4-12.6s-2.3-8.4-3.6-12.6c-.8-2.9-1.7-5.7-2.5-8.6l4.4-1.3 8.6-2.6 8.5-2.7 8.5-2.8c2.8-1 5.7-1.9 8.5-2.9 1.1-.4 2.1-.7 3.2-1.1.3-1.5.6-3.1.9-4.6z"/><path d="m388.4 622.3 3.1-.9c2.1-.6 4.1-1.3 6.1-2s4.1-1.3 6.1-2.1c2-.7 4.1-1.4 6.1-2.2 2-.7 4-1.5 6-2.2s4-1.5 6-2.3l2.3-.9.4-2.6.5-3.1c.2-1.1.4-2.1.6-3.2.5-2.1.9-4.3 1.5-6.4.3-1.1.5-2.1.8-3.2s.6-2.1.9-3.2.6-2.1.9-3.2c.3-1 .6-2.1 1-3.2.4-1 .7-2.1 1-3.2l1.1-3.1c.3-1.1.8-2.1 1.2-3.1s.8-2.1 1.3-3.1l1.4-3.1c.4-1 1-2 1.5-3l.7-1.5c.3-.5.5-1 .8-1.5.5-1 1.1-2 1.6-3.1-.9.7-1.8 1.5-2.7 2.2-.4.4-.9.8-1.3 1.2l-1.2 1.3c-.8.8-1.6 1.7-2.4 2.6l-2.2 2.8c-.8.9-1.4 1.9-2 2.9-.7 1-1.3 2-1.9 3l-1.8 3.1c-.6 1-1.1 2.1-1.6 3.1s-1 2.1-1.5 3.2-.9 2.2-1.4 3.3c-.4 1.1-.9 2.2-1.2 3.3-.4 1.1-.8 2.2-1.1 3.3s-.7 2.3-1 3.4-.6 2.3-.9 3.4-.5 2.3-.7 3.5c-.1.4-.1.7-.2 1.1-1.2.5-2.4 1-3.7 1.5-2 .9-4 1.7-5.9 2.6-2 .9-3.9 1.8-5.9 2.7s-3.9 1.9-5.8 2.9-3.8 2-5.7 3c-1 .5-1.9 1-2.8 1.6-.9.5-1.9 1.1-2.8 1.6-.1.1-.2.1-.3.2.9 1.1 1.9 2.2 2.9 3.4z"/><path d="m415.2 655.3c1.8-1.1 3.6-2.2 5.4-3.4 1.8-1.1 3.6-2.3 5.4-3.4 1-.7 2-1.3 3.1-2 2.8 1.6 5.7 3.2 8.6 4.8 1.8 1 3.6 2 5.4 2.9 1.8 1 3.6 1.9 5.5 2.9 1.8 1 3.7 1.9 5.5 2.8s3.7 1.9 5.5 2.7c3.7 1.8 7.4 3.6 11.2 5.3l1.8.8 1.3-.9c3.8-2.6 7.5-5.4 11.2-8.1 1.8-1.4 3.7-2.8 5.5-4.3.9-.7 1.8-1.5 2.7-2.2.9-.8 1.8-1.5 2.7-2.3-1.1.4-2.2.9-3.2 1.3-1.1.4-2.1.9-3.2 1.3-2.1.9-4.2 1.9-6.3 2.8-3.6 1.6-7.1 3.4-10.6 5.1-3-1.9-6.1-3.8-9.2-5.7-1.8-1.1-3.5-2.1-5.3-3.2s-3.5-2.1-5.3-3.1-3.6-2-5.4-3-3.6-2-5.4-3c-3.6-2-7.2-3.9-10.9-5.8l-2.4-1.2-2.1 1.5c-1.7 1.2-3.4 2.5-5.1 3.8s-3.4 2.6-5.1 3.9-3.3 2.6-5 3.9c-1.2.9-2.3 1.8-3.5 2.8 1.1 1.7 2.2 3.5 3.3 5.3 1.2-.6 2.5-1.4 3.9-2.3z"/><path d="m495.4 807.9c-1.3-2.1-2.6-4.2-3.9-6.2l-4-6.2c-1.3-2.1-2.7-4.1-4-6.1-2.7-4.1-5.5-8.1-8.3-12.1-2.4-3.4-4.8-6.9-7.3-10.3l1.4-4.5 1.9-6.3c1.2-4.2 2.5-8.4 3.7-12.6s2.4-8.4 3.6-12.6 2.3-8.4 3.4-12.6l1.1-4.2-4.1-1-8.7-2.2-8.7-2.1-8.7-2-8.8-1.9c-2.9-.6-5.8-1.3-8.8-1.8-1.5-.3-2.9-.6-4.4-.9l-1-.2c.4 1.6.7 3.1.9 4.6 1.1.4 2.1.7 3.2 1.1 2.8 1 5.7 1.9 8.5 2.9l8.5 2.8 8.5 2.7 8.6 2.6 4.4 1.3c-.9 2.9-1.7 5.7-2.5 8.6-1.2 4.2-2.4 8.4-3.6 12.6s-2.3 8.4-3.4 12.6l-1.6 6.3-1.6 6.3-.5 2 1.2 1.4c3.1 3.8 6.2 7.5 9.3 11.3 3.1 3.7 6.3 7.5 9.5 11.1 1.6 1.8 3.2 3.7 4.8 5.5l4.9 5.5c1.6 1.8 3.3 3.6 5 5.4s3.4 3.6 5.1 5.3c-1-2-2.3-4.1-3.6-6.1z"/><path d="m250.9 783.8c32.8-57.6 40.7-133.8 42-151.1-13.2-3.2-23.9-9.1-30.2-16.7-11.5 12.3-75.9 84.7-47.7 133 8.1 13.8 21.9 25.3 35.9 34.8z"/><path d="m369.7 616c-6.2 7.5-16.9 13.4-30.2 16.7 1.4 17.2 9.3 93.4 42 151.1 14-9.5 27.9-21 35.9-34.7 28.2-48.4-36.2-120.8-47.7-133.1z"/><path d="m375 788c-2.7-4.7-5.2-9.6-7.6-14.5h-102.3c-2.4 4.9-4.9 9.8-7.6 14.5 7.2 4.5 14.2 8.5 20.3 12 5.5 3.1 10.2 5.8 13.9 8.2 7.3 4.7 15.8 7.3 24.5 7.3s17.2-2.5 24.5-7.3c3.7-2.4 8.5-5.1 13.9-8.2 6.2-3.4 13.2-7.4 20.4-12z"/><path d="m357.9 751.4h-83.2c-1.9 4.8-3.8 9.6-5.9 14.3h95.1c-2.2-4.7-4.2-9.5-6-14.3z"/><path d="m298.1 658.1c-1 6.9-2.2 14.6-3.8 23h44c-1.6-8.4-2.9-16.2-3.8-23z"/><path d="m331.8 634.2c-4.9.8-10.1 1.2-15.5 1.2s-10.6-.4-15.5-1.2c-.3 3.8-.8 9.3-1.6 16h34.2c-.9-6.7-1.4-12.2-1.6-16z"/><path d="m286.9 713.5h58.8c-2.3-8.5-4.2-16.8-5.8-24.6h-47.1c-1.7 7.8-3.7 16.1-5.9 24.6z"/><path d="m277.5 743.6h77.5c-2.7-7.5-5-15-7.2-22.3h-63.1c-2.1 7.4-4.5 14.8-7.2 22.3z"/><path d="m316.3 627.6c28 0 51.7-12.4 51.7-27.2 0-10-11-19-26.8-23.7-5.3 6.2-14.5 10.3-24.9 10.3s-19.5-4.1-24.9-10.3c-15.9 4.7-26.8 13.7-26.8 23.7 0 14.7 23.6 27.2 51.7 27.2z"/><path d="m316.3 579.2c11.9 0 21.9-6.9 21.9-15s-10-15-21.9-15-21.9 6.9-21.9 15 10 15 21.9 15z"/></g></svg>